<?xml version="1.0" standalone="no"?>
<!DOCTYPE svg PUBLIC "-//W3C//DTD SVG 20010904//EN"
 "http://www.w3.org/TR/2001/REC-SVG-20010904/DTD/svg10.dtd">
<svg version="1.0" xmlns="http://www.w3.org/2000/svg"
 width="1563.000000pt" height="1156.000000pt" viewBox="0 0 1563.000000 1156.000000"
 preserveAspectRatio="xMidYMid meet">

<g transform="translate(0.000000,1156.000000) scale(0.100000,-0.100000)"
fill="#000000" stroke="none">
<path d="M5353 8408 c-684 -684 -1243 -1248 -1243 -1253 0 -13 3062 -3075
3075 -3075 6 0 108 98 228 218 l217 217 -88 88 c-48 48 -92 87 -97 87 -6 0
-66 -56 -135 -125 l-125 -125 -1357 1357 -1358 1358 1065 1065 1065 1066 -2
182 -3 182 -1242 -1242z"/>
<path d="M8723 7247 l-243 -132 0 -132 c0 -73 3 -133 6 -133 3 0 116 60 250
133 l244 132 0 133 c0 72 -3 132 -7 132 -5 -1 -117 -60 -250 -133z"/>
<path d="M8728 6863 l-248 -135 0 -135 c0 -74 4 -133 8 -131 5 2 117 62 250
133 l241 130 1 138 c0 75 -1 137 -2 136 -2 -1 -114 -62 -250 -136z"/>
<path d="M8723 6477 l-242 -132 -1 -132 c0 -73 3 -133 7 -133 4 0 116 59 250
131 l243 132 0 133 c0 74 -3 134 -7 133 -5 0 -117 -60 -250 -132z"/>
<path d="M8552 3100 c-274 -38 -420 -209 -382 -446 14 -86 46 -149 108 -206
64 -60 139 -97 328 -162 228 -79 271 -117 262 -237 -7 -93 -52 -128 -177 -136
-99 -7 -233 17 -385 68 -65 21 -121 37 -123 35 -4 -4 -32 -189 -33 -217 0 -19
73 -48 218 -86 133 -34 354 -43 466 -19 162 37 280 124 328 244 33 82 33 255
1 325 -58 125 -178 209 -428 297 -205 72 -245 103 -245 189 0 59 18 85 75 107
83 31 292 5 473 -61 41 -15 75 -25 76 -23 5 6 46 213 46 230 0 21 -146 70
-255 87 -103 15 -281 21 -353 11z"/>
<path d="M10945 3104 c-149 -21 -245 -57 -313 -119 -87 -78 -128 -218 -102
-347 33 -169 135 -254 420 -348 151 -51 209 -79 243 -120 44 -52 48 -146 9
-200 -60 -81 -267 -77 -537 10 -67 22 -124 40 -127 40 -3 0 -11 -52 -18 -116
-11 -98 -10 -118 1 -125 27 -18 205 -69 293 -84 112 -19 290 -19 380 0 88 19
182 63 233 109 119 107 157 323 83 473 -58 117 -166 192 -404 278 -218 78
-253 103 -262 182 -6 52 13 84 66 111 78 39 259 22 455 -43 55 -19 102 -32
104 -30 5 6 50 205 51 227 0 20 -108 57 -236 81 -82 16 -286 28 -339 21z"/>
<path d="M9225 3073 c3 -10 109 -213 236 -451 l229 -433 0 -245 0 -245 148 3
147 3 3 247 2 247 226 418 c124 230 232 430 240 446 l15 27 -162 0 -161 0
-150 -307 -150 -306 -154 299 c-84 164 -154 302 -154 307 0 4 -72 7 -161 7
-149 0 -161 -1 -154 -17z"/>
<path d="M11630 2965 l0 -125 215 0 215 0 0 -570 0 -571 148 3 147 3 3 568 2
567 210 0 210 0 0 125 0 125 -575 0 -575 0 0 -125z"/>
<path d="M12910 2395 l0 -695 505 0 505 0 0 125 0 125 -355 0 -355 0 2 173 3
172 303 3 302 2 0 120 0 120 -305 0 -305 0 0 150 0 150 353 2 352 3 3 123 3
122 -506 0 -505 0 0 -695z"/>
<path d="M14100 2395 l0 -695 145 0 145 0 0 397 c0 228 4 393 9 387 5 -5 77
-184 162 -397 l153 -388 100 3 100 3 152 388 c84 214 155 391 158 394 3 4 6
-172 6 -390 l0 -397 145 0 145 0 0 695 0 695 -189 0 -188 0 -157 -407 c-87
-225 -161 -412 -166 -416 -4 -5 -82 178 -173 405 l-165 413 -191 3 -191 2 0
-695z"/>
</g>
</svg>
