<?xml version="1.0" standalone="no"?>
<!DOCTYPE svg PUBLIC "-//W3C//DTD SVG 20010904//EN"
 "http://www.w3.org/TR/2001/REC-SVG-20010904/DTD/svg10.dtd">
<svg version="1.0" xmlns="http://www.w3.org/2000/svg"
 width="1563.000000pt" height="488.000000pt" viewBox="0 0 1563.000000 488.000000"
 preserveAspectRatio="xMidYMid meet">

<g transform="translate(0.000000,488.000000) scale(0.100000,-0.100000)"
fill="#000000" stroke="none">
<path d="M2403 4413 l-593 -445 0 -1222 0 -1221 80 -80 80 -80 0 1256 0 1255
428 322 c235 177 431 322 435 322 4 0 7 -409 7 -910 0 -500 3 -910 8 -909 4 0
41 20 82 43 l75 44 3 1036 c1 570 -1 1036 -5 1035 -5 0 -275 -201 -600 -446z"/>
<path d="M3180 3324 l0 -446 43 25 c23 13 61 34 84 47 l43 23 2 249 3 248 305
-189 305 -189 3 -728 2 -728 85 84 85 85 0 687 0 687 -474 295 c-261 163 -477
296 -480 296 -3 0 -6 -201 -6 -446z"/>
<path d="M813 2838 l-813 -813 1005 -1005 1005 -1005 145 145 145 145 -57 57
-58 58 -85 -85 -85 -85 -887 887 -888 888 695 695 696 696 -3 117 -3 117 -812
-812z"/>
<path d="M1226 2431 l-400 -400 999 -1003 c550 -552 1004 -1004 1010 -1006 12
-3 2005 1991 2005 2005 0 5 -119 127 -265 273 l-265 265 0 -120 0 -120 150
-150 150 -150 -887 -887 -888 -888 -887 887 -888 888 285 285 286 286 -3 117
-3 117 -399 -399z"/>
<path d="M6490 2783 c-184 -31 -280 -173 -224 -336 29 -87 108 -141 294 -202
106 -35 150 -74 150 -132 0 -123 -138 -135 -431 -37 -18 6 -24 -9 -34 -97 l-7
-55 89 -28 c105 -33 274 -46 364 -27 87 18 156 65 193 131 27 49 31 64 31 135
0 153 -63 213 -325 311 -41 15 -87 40 -102 55 -51 50 -30 112 44 128 48 11
179 -5 261 -33 40 -14 75 -21 79 -18 3 4 13 40 21 80 l14 72 -66 20 c-117 35
-260 48 -351 33z"/>
<path d="M7360 2774 c-246 -53 -387 -260 -351 -517 24 -171 94 -277 228 -346
48 -24 152 -51 199 -51 27 0 53 -23 199 -171 l168 -171 69 69 70 70 -116 108
c-64 60 -116 112 -116 116 0 4 9 10 20 14 47 15 140 88 174 138 96 140 110
351 35 511 -87 187 -332 284 -579 230z m234 -151 c82 -23 157 -95 180 -173 23
-77 21 -196 -4 -264 -53 -140 -216 -209 -381 -160 -75 22 -151 98 -173 173
-33 112 -15 248 44 329 35 49 65 70 134 94 65 22 124 23 200 1z"/>
<path d="M10970 2776 c-104 -24 -156 -59 -192 -130 -30 -58 -31 -166 -1 -221
41 -77 92 -111 257 -170 108 -39 161 -67 170 -91 3 -9 6 -35 6 -58 0 -33 -6
-48 -26 -67 -24 -22 -33 -24 -122 -23 -93 1 -124 7 -284 60 -13 5 -18 -3 -23
-38 -4 -23 -7 -59 -8 -78 l-2 -35 85 -30 c79 -27 96 -29 230 -30 145 0 146 0
213 33 75 37 112 78 133 148 21 70 18 141 -10 199 -37 81 -101 125 -279 191
-48 18 -99 40 -113 49 -32 21 -48 57 -40 89 20 80 158 80 397 0 12 -4 18 8 27
60 7 36 15 72 18 80 4 11 -11 20 -63 35 -138 41 -269 51 -373 27z"/>
<path d="M12513 2780 c-141 -30 -223 -120 -223 -245 0 -139 82 -216 308 -290
109 -35 152 -72 152 -127 0 -52 -14 -77 -55 -94 -63 -26 -192 -12 -329 36 -33
11 -61 18 -63 16 -4 -4 -23 -114 -23 -137 0 -11 27 -24 93 -45 83 -26 105 -29
232 -29 130 0 144 2 195 26 108 51 154 126 155 249 0 146 -63 207 -313 301
-104 39 -142 69 -142 113 0 38 23 62 71 76 44 13 171 -4 264 -35 38 -13 73
-22 76 -20 11 7 31 147 22 156 -35 35 -326 69 -420 49z"/>
<path d="M2835 2499 l-510 -278 -3 -603 -2 -602 82 -83 83 -83 5 636 5 636
265 144 c146 80 302 165 348 190 l83 45 -3 -161 -3 -162 -160 -88 -160 -88 -3
-86 c-1 -47 -1 -86 2 -86 3 0 75 38 160 85 85 47 157 85 160 85 4 0 6 -17 6
-37 l-1 -38 -162 -86 -162 -87 -3 -86 c-1 -47 -1 -86 2 -86 3 0 75 38 160 85
85 47 157 85 160 85 4 0 6 -17 6 -38 l0 -39 -165 -89 -164 -89 -1 -88 0 -89
83 45 c45 25 118 65 162 90 l80 44 3 -321 2 -320 85 84 85 85 0 877 c0 483 -3
878 -7 877 -5 -1 -237 -126 -518 -280z"/>
<path d="M5490 2325 l0 -455 330 0 330 0 0 80 0 80 -235 0 -236 0 3 113 3 112
198 3 197 2 0 80 0 80 -200 0 -201 0 3 98 3 97 228 3 227 2 0 80 0 80 -325 0
-325 0 0 -455z"/>
<path d="M8104 2765 c-3 -8 -4 -162 -2 -342 4 -277 7 -335 21 -372 50 -131
163 -191 357 -191 209 0 326 72 365 225 12 47 15 125 15 377 l0 318 -95 0 -94
0 -3 -334 c-3 -380 -1 -369 -88 -413 -88 -45 -208 -19 -257 56 -23 34 -23 38
-23 362 l0 329 -95 0 c-75 0 -97 -3 -101 -15z"/>
<path d="M9073 2378 c-84 -222 -162 -427 -173 -455 l-20 -53 108 0 109 0 32
93 c17 50 35 98 40 105 6 9 47 12 171 10 l163 -3 35 -102 34 -103 104 0 c57 0
104 3 104 8 0 4 -74 207 -164 452 l-164 445 -114 3 -113 3 -152 -403z m320 23
c26 -81 47 -151 47 -155 0 -3 -48 -6 -106 -6 -80 0 -105 3 -102 13 11 43 104
297 109 297 3 0 27 -67 52 -149z"/>
<path d="M9830 2325 l0 -457 223 5 c242 5 281 12 390 69 73 39 130 102 170
186 31 65 32 72 32 197 0 126 -1 132 -32 198 -54 115 -155 194 -294 233 -37
11 -124 17 -271 21 l-218 6 0 -458z m456 264 c120 -45 181 -149 172 -293 -8
-118 -61 -196 -164 -241 -27 -12 -76 -19 -156 -23 l-118 -4 0 291 0 291 105 0
c82 0 116 -5 161 -21z"/>
<path d="M11440 2776 c0 -2 70 -136 155 -298 l155 -293 0 -157 0 -158 95 0 95
0 0 159 0 160 155 286 c85 158 155 291 155 296 0 5 -45 9 -101 9 l-101 0 -96
-200 c-53 -110 -99 -200 -102 -200 -3 0 -50 90 -105 200 l-100 200 -102 0
c-57 0 -103 -2 -103 -4z"/>
<path d="M13020 2700 l0 -79 138 -3 137 -3 3 -372 2 -373 95 0 95 0 0 375 0
375 140 0 140 0 0 80 0 80 -375 0 -375 0 0 -80z"/>
<path d="M13860 2325 l0 -455 330 0 330 0 0 80 0 80 -235 0 -235 0 0 115 0
115 200 0 200 0 0 80 0 80 -200 0 -200 0 0 100 0 100 230 0 230 0 0 80 0 80
-325 0 -325 0 0 -455z"/>
<path d="M14630 2325 l0 -455 95 0 95 0 0 257 c0 141 3 253 6 250 4 -4 51
-118 105 -254 l97 -248 67 0 67 0 95 245 c52 135 99 249 104 255 5 5 9 -94 9
-248 l0 -257 95 0 95 0 0 455 0 455 -123 0 -124 0 -102 -267 c-57 -148 -106
-271 -110 -275 -3 -4 -55 116 -116 265 l-110 272 -122 3 -123 3 0 -456z"/>
<path d="M13353 1317 c-13 -5 -23 -16 -23 -24 0 -16 12 -17 27 -2 9 9 21 7 49
-6 28 -13 42 -15 60 -6 31 14 31 33 1 26 -12 -3 -38 0 -57 8 -26 11 -41 12
-57 4z"/>
<path d="M5490 1085 l0 -145 100 0 c82 0 100 3 100 15 0 12 -16 15 -80 15
l-80 0 0 50 0 50 70 0 c56 0 70 3 70 15 0 12 -14 15 -70 15 l-70 0 0 50 0 50
80 0 c64 0 80 3 80 15 0 12 -18 15 -100 15 l-100 0 0 -145z"/>
<path d="M5856 1209 c-19 -15 -26 -30 -26 -53 0 -41 19 -58 92 -86 46 -17 59
-27 64 -47 11 -41 -27 -67 -84 -58 -25 4 -51 9 -58 12 -8 3 -14 -1 -14 -11 0
-19 39 -31 102 -30 60 1 98 31 98 79 0 44 -16 60 -92 94 -68 30 -80 46 -59 80
9 14 60 17 110 6 24 -5 31 -3 31 8 0 33 -124 38 -164 6z"/>
<path d="M6241 1213 c-49 -24 -71 -67 -71 -137 0 -54 3 -61 38 -96 25 -25 50
-39 77 -44 28 -5 54 -21 87 -54 38 -36 51 -43 60 -34 9 9 4 20 -25 50 l-36 37
29 17 c93 53 93 214 0 260 -44 22 -115 23 -159 1z m154 -37 c59 -39 55 -158
-8 -196 -97 -59 -207 22 -177 130 13 47 20 56 55 75 35 19 94 15 130 -9z"/>
<path d="M6620 1111 c0 -110 2 -122 23 -146 45 -53 174 -40 197 20 6 15 10 76
10 136 0 102 -1 109 -20 109 -19 0 -20 -7 -20 -110 0 -104 -1 -112 -25 -135
-15 -16 -36 -25 -55 -25 -19 0 -40 9 -55 25 -24 23 -25 31 -25 135 0 91 -3
110 -15 110 -12 0 -15 -20 -15 -119z"/>
<path d="M7069 1203 c-6 -16 -28 -73 -49 -128 -21 -55 -41 -108 -45 -118 -7
-16 -4 -18 16 -15 16 2 26 12 33 36 l9 32 68 0 68 0 12 -35 c8 -22 20 -35 31
-35 10 0 18 3 18 8 0 4 -23 69 -51 145 -47 124 -54 137 -76 137 -16 0 -27 -8
-34 -27z m69 -96 c12 -33 22 -61 22 -63 0 -6 -96 -5 -102 2 -3 3 3 28 14 57
10 29 21 58 24 66 7 20 17 5 42 -62z"/>
<path d="M7370 1086 l0 -146 73 0 c51 0 82 5 106 18 65 35 89 121 53 191 -28
57 -61 74 -152 79 l-80 5 0 -147z m150 96 c40 -19 60 -53 60 -99 0 -75 -43
-113 -130 -113 l-50 0 0 108 c0 60 3 112 7 115 12 13 78 7 113 -11z"/>
<path d="M7760 1085 c0 -138 1 -145 20 -145 18 0 20 7 20 60 l0 60 33 0 c29 0
38 -7 73 -57 26 -38 47 -59 63 -61 22 -3 21 -1 -16 54 l-40 58 31 21 c40 27
53 64 37 103 -17 40 -48 52 -141 52 l-80 0 0 -145z m160 102 c30 -15 38 -58
15 -81 -12 -11 -34 -16 -76 -16 l-59 0 0 55 0 55 48 0 c26 0 58 -6 72 -13z"/>
<path d="M8140 1085 c0 -138 1 -145 20 -145 19 0 20 7 20 145 0 138 -1 145
-20 145 -19 0 -20 -7 -20 -145z"/>
<path d="M8362 1093 c-29 -76 -52 -141 -52 -145 0 -5 8 -8 19 -8 12 0 21 11
27 33 10 32 10 32 80 35 l71 3 9 -33 c7 -23 16 -34 33 -36 13 -2 22 0 20 5 -2
5 -26 71 -54 146 -46 127 -52 137 -76 137 -24 0 -29 -10 -77 -137z m106 25
c12 -35 22 -66 22 -70 0 -5 -22 -8 -50 -8 -27 0 -50 3 -50 8 0 15 44 132 50
132 3 0 16 -28 28 -62z"/>
<path d="M8715 1205 c-47 -46 -24 -107 48 -126 64 -16 87 -35 87 -69 0 -48
-40 -58 -134 -34 -20 5 -26 2 -26 -9 0 -9 8 -18 18 -21 52 -14 85 -16 122 -6
33 9 44 18 56 45 15 36 8 71 -18 92 -7 6 -39 21 -70 33 -62 23 -82 51 -55 78
15 14 31 15 116 9 36 -3 36 19 0 27 -69 13 -119 7 -144 -19z"/>
<path d="M9240 1085 l0 -145 78 0 c125 0 179 49 170 157 -8 92 -67 133 -190
133 l-58 0 0 -145z m150 100 c43 -22 60 -53 60 -108 0 -40 -5 -53 -29 -78 -26
-25 -37 -29 -85 -29 l-56 0 0 115 0 115 40 0 c23 0 54 -7 70 -15z"/>
<path d="M9640 1085 l0 -145 100 0 c82 0 100 3 100 15 0 12 -16 15 -85 15
l-85 0 0 50 0 50 70 0 c56 0 70 3 70 15 0 12 -15 15 -71 15 l-70 0 3 48 3 47
78 3 c59 2 77 6 77 17 0 12 -18 15 -95 15 l-95 0 0 -145z"/>
<path d="M10267 1223 c-6 -10 -107 -273 -107 -279 0 -2 9 -4 19 -4 13 0 23 11
31 35 l12 35 68 0 68 0 12 -35 c8 -24 18 -35 31 -35 10 0 19 3 19 7 0 3 -23
68 -52 145 -45 122 -54 138 -74 138 -13 0 -25 -3 -27 -7z m52 -105 c12 -34 21
-66 21 -70 0 -4 -22 -8 -50 -8 -27 0 -50 3 -50 8 0 16 45 132 51 132 4 0 17
-28 28 -62z"/>
<path d="M10550 1085 l0 -145 100 0 c82 0 100 3 100 15 0 12 -16 15 -80 15
l-80 0 0 130 c0 123 -1 130 -20 130 -19 0 -20 -7 -20 -145z"/>
<path d="M10820 1215 c0 -11 12 -15 50 -15 l50 0 0 -130 c0 -109 2 -130 15
-130 13 0 15 21 15 130 l0 130 50 0 c38 0 50 4 50 15 0 12 -19 15 -115 15 -96
0 -115 -3 -115 -15z"/>
<path d="M11233 1210 c-48 -29 -67 -65 -67 -124 2 -98 53 -150 149 -150 90 0
142 45 151 132 6 58 -16 107 -65 139 -44 30 -122 31 -168 3z m169 -49 c23 -25
28 -41 28 -81 0 -41 -5 -56 -29 -82 -27 -30 -35 -33 -85 -33 -46 0 -60 4 -82
26 -31 32 -42 95 -24 140 31 75 137 91 192 30z"/>
<path d="M11820 1086 c0 -123 2 -146 15 -146 12 0 15 13 15 59 l0 59 76 4 c65
3 79 7 95 27 24 30 24 82 0 112 -17 21 -29 24 -110 27 l-91 4 0 -146z m149
103 c26 -9 31 -16 31 -43 0 -46 -16 -56 -87 -56 l-63 0 0 55 0 55 44 0 c23 0
57 -5 75 -11z"/>
<path d="M12235 1221 c-6 -10 -105 -271 -105 -277 0 -2 9 -4 19 -4 13 0 23 11
31 35 l12 35 68 0 68 0 12 -35 c8 -25 18 -35 32 -35 12 0 18 5 16 13 -97 270
-100 277 -124 277 -12 0 -25 -4 -29 -9z m53 -103 c12 -35 22 -66 22 -70 0 -5
-22 -8 -50 -8 -27 0 -50 3 -50 8 0 15 44 132 50 132 3 0 16 -28 28 -62z"/>
<path d="M12520 1085 l0 -145 79 0 c65 0 84 4 112 23 43 29 59 60 59 120 0 97
-62 147 -183 147 l-67 0 0 -145z m179 81 c34 -33 44 -70 30 -119 -14 -53 -51
-77 -115 -77 l-54 0 0 116 0 116 55 -4 c43 -4 62 -11 84 -32z"/>
<path d="M12920 1086 c0 -123 2 -146 15 -146 12 0 15 13 15 60 l0 60 35 0 c31
0 39 -6 77 -60 25 -36 49 -60 60 -60 25 0 23 5 -19 63 -28 38 -34 52 -23 55
55 19 78 98 41 143 -17 21 -29 24 -110 27 l-91 4 0 -146z m176 89 c37 -50 5
-85 -77 -85 l-59 0 0 56 0 56 61 -4 c45 -3 65 -10 75 -23z"/>
<path d="M13345 1133 c-21 -54 -46 -119 -56 -145 -18 -47 -18 -48 1 -48 13 0
25 12 35 35 l14 36 68 -3 c67 -3 67 -3 77 -35 7 -25 15 -33 31 -33 22 0 21 4
-30 143 -47 127 -55 142 -78 145 -23 3 -27 -4 -62 -95z m89 -21 c13 -33 21
-63 18 -66 -6 -7 -102 -8 -102 -1 0 2 8 26 18 52 11 26 22 57 26 67 9 25 12
20 40 -52z"/>
<path d="M13713 1210 c-67 -41 -89 -116 -55 -193 25 -56 67 -81 137 -81 70 0
112 25 137 81 34 78 8 162 -62 198 -41 21 -118 19 -157 -5z m145 -30 c40 -25
55 -61 49 -119 -7 -66 -42 -96 -112 -96 -46 0 -59 4 -81 26 -30 31 -42 98 -25
141 13 34 66 68 106 68 17 0 45 -9 63 -20z"/>
</g>
</svg>
